15_US_stride3.mot
nRows=165
nColumns=3

name 15_US_stride3.mot
datacolumns 3
datarows 165
range 1.190000 2.010000
endheader
time	soleus_l	med_gas_l
        1.1900000000	       28.5974984784	       31.3368439653	
        1.1950000000	       28.2821488911	       30.9009046748	
        1.2000000000	       28.0743776121	       30.4469904826	
        1.2050000000	       27.9836036566	       30.1160118930	
        1.2100000000	       27.9249069268	       29.7702136402	
        1.2150000000	       27.8781605739	       29.4159236680	
        1.2200000000	       27.8225138393	       29.1550055786	
        1.2250000000	       27.7216046993	       28.9675647329	
        1.2300000000	       27.5714843159	       28.8236271753	
        1.2350000000	       27.4310885307	       28.7236839727	
        1.2400000000	       27.3069345456	       28.6385414487	
        1.2450000000	       27.1682904265	       28.5179131026	
        1.2500000000	       27.0831339180	       28.3887066318	
        1.2550000000	       27.0714053693	       28.2528317694	
        1.2600000000	       27.0807890385	       28.1135834362	
        1.2650000000	       27.1224674506	       27.9846725822	
        1.2700000000	       27.1523842284	       27.8861486738	
        1.2750000000	       27.1706755392	       27.7654591587	
        1.2800000000	       27.1723777397	       27.6364447992	
        1.2850000000	       27.1544751374	       27.5217782979	
        1.2900000000	       27.1290058034	       27.4232750018	
        1.2950000000	       27.1089435831	       27.3471657974	
        1.3000000000	       27.0975577894	       27.3021166526	
        1.3050000000	       27.0848581440	       27.2625746720	
        1.3100000000	       27.0565684352	       27.2130270852	
        1.3150000000	       26.9911734099	       27.1418943746	
        1.3200000000	       26.8781490511	       27.0433208808	
        1.3250000000	       26.7514078475	       26.9457560951	
        1.3300000000	       26.6140205731	       26.8498834640	
        1.3350000000	       26.4128578258	       26.7243777219	
        1.3400000000	       26.2107462451	       26.6184079498	
        1.3450000000	       26.0254989512	       26.5420311772	
        1.3500000000	       25.8535462250	       26.4873686833	
        1.3550000000	       25.6957720838	       26.4451889903	
        1.3600000000	       25.5672283686	       26.4107483840	
        1.3650000000	       25.3755680615	       26.3546622306	
        1.3700000000	       25.1163633424	       26.2741282227	
        1.3750000000	       24.8175389405	       26.1810528579	
        1.3800000000	       24.4832193025	       26.0818506714	
        1.3850000000	       24.1469011546	       25.9874329317	
        1.3900000000	       23.9062540292	       25.9189183703	
        1.3950000000	       23.6876888478	       25.8490292279	
        1.4000000000	       23.4479708227	       25.7505555209	
        1.4050000000	       23.2562436943	       25.6315860209	
        1.4100000000	       23.0758230096	       25.4753598761	
        1.4150000000	       22.8983838500	       25.2972946559	
        1.4200000000	       22.7116199294	       25.1087191538	
        1.4250000000	       22.5000219544	       24.9131998798	
        1.4300000000	       22.1961684339	       24.6716512523	
        1.4350000000	       21.8408126909	       24.4381271326	
        1.4400000000	       21.4611764412	       24.2371801551	
        1.4450000000	       21.1070649082	       24.0870190774	
        1.4500000000	       20.8516955518	       23.9985225418	
        1.4550000000	       20.5693493799	       23.9217309684	
        1.4600000000	       20.3221690356	       23.8734929275	
        1.4650000000	       20.1687076159	       23.8581876411	
        1.4700000000	       20.1007008954	       23.8656658146	
        1.4750000000	       20.1380439457	       23.9048488026	
        1.4800000000	       20.2241317966	       23.9601596915	
        1.4850000000	       20.3812763693	       24.0477359316	
        1.4900000000	       20.6621436310	       24.2185652223	
        1.4950000000	       21.0047144603	       24.4541850454	
        1.5000000000	       21.3981767173	       24.7577362585	
        1.5050000000	       21.8092724511	       25.1048554160	
        1.5100000000	       22.1754874822	       25.4279552561	
        1.5150000000	       22.4768320317	       25.6938573402	
        1.5200000000	       22.8494219713	       25.9951235631	
        1.5250000000	       23.2296503320	       26.2405292736	
        1.5300000000	       23.6034650739	       26.3950648295	
        1.5350000000	       23.9817703380	       26.4515709135	
        1.5400000000	       24.3591707937	       26.4374114475	
        1.5450000000	       24.6444428667	       26.3750688492	
        1.5500000000	       24.9781116982	       26.2591010932	
        1.5550000000	       25.3837764791	       26.0853615024	
        1.5600000000	       25.7646325127	       25.9155876329	
        1.5650000000	       26.1997592463	       25.7532896054	
        1.5700000000	       26.5213128990	       25.6781823813	
        1.5750000000	       26.8440112040	       25.6561998955	
        1.5800000000	       27.2621870230	       25.6901882725	
        1.5850000000	       27.6515313510	       25.7911937877	
        1.5900000000	       28.0177919267	       25.9090804064	
        1.5950000000	       28.3624601278	       25.9802700978	
        1.6000000000	       28.6395918206	       25.9900624623	
        1.6050000000	       28.8481764505	       25.9359637167	
        1.6100000000	       29.1049459697	       25.8098402718	
        1.6150000000	       29.3540015131	       25.6394554060	
        1.6200000000	       29.5747001909	       25.5113313088	
        1.6250000000	       29.7649269954	       25.4695119571	
        1.6300000000	       29.9171556215	       25.5567071271	
        1.6350000000	       30.0080231371	       25.7028466323	
        1.6400000000	       30.0936099686	       25.9252323395	
        1.6450000000	       30.1868723448	       26.2225132693	
        1.6500000000	       30.2908168504	       26.4823224949	
        1.6550000000	       30.4276486331	       26.6455196896	
        1.6600000000	       30.6112350137	       26.6792541773	
        1.6650000000	       30.7868946960	       26.6667141948	
        1.6700000000	       30.9525014915	       26.6144612601	
        1.6750000000	       31.1572882398	       26.5616906409	
        1.6800000000	       31.3110982900	       26.5836700725	
        1.6850000000	       31.3753317828	       26.6833462509	
        1.6900000000	       31.3768010428	       26.8894043610	
        1.6950000000	       31.3196899229	       27.1432442131	
        1.7000000000	       31.2560472979	       27.3524074547	
        1.7050000000	       31.1793259015	       27.6062774908	
        1.7100000000	       31.1184418485	       27.8640654465	
        1.7150000000	       31.0981789780	       28.0695693601	
        1.7200000000	       31.1110540423	       28.2206363603	
        1.7250000000	       31.1353207584	       28.3068030113	
        1.7300000000	       31.1522784326	       28.3870430086	
        1.7350000000	       31.1547922752	       28.4678690811	
        1.7400000000	       31.0988121226	       28.5398157029	
        1.7450000000	       30.9819681387	       28.6125113539	
        1.7500000000	       30.8099334532	       28.6921606388	
        1.7550000000	       30.6461552266	       28.7627110421	
        1.7600000000	       30.4928923010	       28.8318612435	
        1.7650000000	       30.2998783820	       28.9355527912	
        1.7700000000	       30.1561320057	       29.0458808069	
        1.7750000000	       30.1114825212	       29.1569386498	
        1.7800000000	       30.1261980234	       29.2608240554	
        1.7850000000	       30.2428405216	       29.3401035641	
        1.7900000000	       30.3849962924	       29.3866680782	
        1.7950000000	       30.6057688613	       29.4026305696	
        1.8000000000	       30.8893239514	       29.3968447481	
        1.8050000000	       31.1684775033	       29.3441974235	
        1.8100000000	       31.4154068965	       29.2620247179	
        1.8150000000	       31.5968166860	       29.1607097293	
        1.8200000000	       31.6365018033	       29.0803673607	
        1.8250000000	       31.6389985522	       28.9994069855	
        1.8300000000	       31.4970127748	       28.8990500360	
        1.8350000000	       31.2536446612	       28.8148353758	
        1.8400000000	       30.9390054655	       28.7483105064	
        1.8450000000	       30.6891521674	       28.7166116533	
        1.8500000000	       30.4998606388	       28.7042337656	
        1.8550000000	       30.3198073364	       28.7143605737	
        1.8600000000	       30.2775698327	       28.7488748425	
        1.8650000000	       30.3116619760	       28.8156635268	
        1.8700000000	       30.4373929419	       28.9247926693	
        1.8750000000	       30.5799235085	       29.0781111857	
        1.8800000000	       30.6828235118	       29.2441366599	
        1.8850000000	       30.7739342876	       29.5327431841	
        1.8900000000	       30.7975647624	       29.9857518280	
        1.8950000000	       30.7473358740	       30.5593825300	
        1.9000000000	       30.5802015708	       31.2291608470	
        1.9050000000	       30.3227112284	       31.9618882867	
        1.9100000000	       30.0847602148	       32.5143465409	
        1.9150000000	       29.8250125618	       33.0404292334	
        1.9200000000	       29.5034741088	       33.6259491407	
        1.9250000000	       29.2527279358	       34.0529336237	
        1.9300000000	       29.0732490916	       34.3548837178	
        1.9350000000	       28.9979558807	       34.4903075310	
        1.9400000000	       28.9869869850	       34.5124754307	
        1.9450000000	       29.0137020020	       34.4684898019	
        1.9500000000	       29.0649266868	       34.3687132483	
        1.9550000000	       29.1178226021	       34.2483547072	
        1.9600000000	       29.1501750180	       34.1495381366	
        1.9650000000	       29.1601914356	       34.0791241619	
        1.9700000000	       29.1496268206	       34.0288641596	
        1.9750000000	       29.1298595483	       33.9783480311	
        1.9800000000	       29.0971968822	       33.8901335769	
        1.9850000000	       29.0486582879	       33.7165434299	
        1.9900000000	       28.9971548784	       33.4710176716	
        1.9950000000	       28.9437893111	       33.1380848188	
        2.0000000000	       28.9098977784	       32.8465286063	
        2.0050000000	       28.8938343145	       32.5577202542	
        2.0100000000	       28.8909446772	       32.1944997526	
